<?xml version="1.0" encoding="UTF-8" standalone="no"?>
<!-- Created with Inkscape (http://www.inkscape.org/) -->

<svg
   xmlns:dc="http://purl.org/dc/elements/1.1/"
   xmlns:cc="http://creativecommons.org/ns#"
   xmlns:rdf="http://www.w3.org/1999/02/22-rdf-syntax-ns#"
   xmlns:svg="http://www.w3.org/2000/svg"
   xmlns="http://www.w3.org/2000/svg"
   xmlns:sodipodi="http://sodipodi.sourceforge.net/DTD/sodipodi-0.dtd"
   xmlns:inkscape="http://www.inkscape.org/namespaces/inkscape"
   width="50"
   height="50"
   id="svg2"
   version="1.1"
   inkscape:version="0.48.0 r9654"
   sodipodi:docname="block.svg">
  <defs
     id="defs4">
    <filter
       inkscape:collect="always"
       id="filter3821"
       x="-0.22000764"
       width="1.4400153"
       y="-0.26180909"
       height="1.5236182">
      <feGaussianBlur
         inkscape:collect="always"
         stdDeviation="3.4412342"
         id="feGaussianBlur3823" />
    </filter>
  </defs>
  <sodipodi:namedview
     id="base"
     pagecolor="#ffffff"
     bordercolor="#666666"
     borderopacity="1.0"
     inkscape:pageopacity="0.0"
     inkscape:pageshadow="2"
     inkscape:zoom="12.68"
     inkscape:cx="25"
     inkscape:cy="25"
     inkscape:document-units="px"
     inkscape:current-layer="layer1"
     showgrid="false"
     inkscape:window-width="1440"
     inkscape:window-height="851"
     inkscape:window-x="-1"
     inkscape:window-y="0"
     inkscape:window-maximized="1" />
  <metadata
     id="metadata7">
    <rdf:RDF>
      <cc:Work
         rdf:about="">
        <dc:format>image/svg+xml</dc:format>
        <dc:type
           rdf:resource="http://purl.org/dc/dcmitype/StillImage" />
        <dc:title />
      </cc:Work>
    </rdf:RDF>
  </metadata>
  <g
     inkscape:label="Calque 1"
     inkscape:groupmode="layer"
     id="layer1"
     transform="translate(0,-1002.3622)">
    <path
       style="fill:#f2f2f2;fill-opacity:1;stroke:none"
       d="M 15 0 C 15 0 16.012915 3.3439413 16.40625 6.96875 C 19.014928 5.7219209 21.915815 5 25 5 C 28.084185 5 30.985072 5.7219209 33.59375 6.96875 C 33.987085 3.3439413 35 9.5752466e-16 35 0 L 15 0 z M 0 15 L 0 35 C 0 35 3.3439413 33.987085 6.96875 33.59375 C 5.721921 30.985072 5 28.084185 5 25 C 5 21.915815 5.721921 19.014928 6.96875 16.40625 C 3.3439413 16.012915 9.5752466e-16 15 0 15 z M 50 15 C 50 15 46.656059 16.012915 43.03125 16.40625 C 44.278079 19.014928 45 21.915815 45 25 C 45 28.084185 44.278079 30.985072 43.03125 33.59375 C 46.656059 33.987085 50 35 50 35 L 50 15 z M 16.40625 43.03125 C 16.012915 46.656059 15 50 15 50 L 35 50 C 35 50 33.987085 46.656059 33.59375 43.03125 C 30.985072 44.278079 28.084185 45 25 45 C 21.915815 45 19.014928 44.278079 16.40625 43.03125 z "
       transform="translate(0,1002.3622)"
       id="rect2985" />
    <path
       transform="matrix(0.79915966,0,0,0.95099998,5.7142859,1005.9872)"
       d="m 42.902208,22.476341 c 0,8.711116 -8.403488,15.772871 -18.769716,15.772871 -10.366228,0 -18.7697162,-7.061755 -18.7697162,-15.772871 0,-8.711116 8.4034882,-15.7728708 18.7697162,-15.7728708 10.366228,0 18.769716,7.0617548 18.769716,15.7728708 z"
       sodipodi:ry="15.772871"
       sodipodi:rx="18.769716"
       sodipodi:cy="22.476341"
       sodipodi:cx="24.132492"
       id="path2997"
       style="fill:#000000;fill-opacity:1;stroke:none;filter:url(#filter3821)"
       sodipodi:type="arc" />
  </g>
</svg>
